:FULLY-SPECIFIED
:FORCE-ALL-JOINTS-BE-3DOF
:DEGREES
102
root 7.20286 16.6946 -26.8549 3.48682 8.21747 -5.11469
lfemur -27.1509 -4.21299 -8.11645
ltibia 39.1215 -0 0
lfoot -17.1333 0.208808 -0.1918
ltoes 13.045 -0 0
rfemur -25.8069 -15.0086 18.2758
rtibia 40.6842 -0 0
rfoot -19.1724 0.501744 0.887415
rtoes -21.4567 0 0
lowerback 1.63419 2.31616 1.81441
upperback -0.688783 3.19945 1.79772
thorax -1.48768 1.57432 0.971594
lowerneck -10.322 -4.2353 2.64191
upperneck -2.06149 -5.9144 0.901661
head 1.02907 -2.94341 -0.362849
lclavicle 9.93923e-015 -9.14409e-015 0
lhumerus -45.0504 -6.77481 91.489
lradius 47.2787 -0 0
lwrist 12.9466 0 0
lhand 1.82343 4.50689 -0.0939284
lfingers 7.12502 -0 0
lthumb 27.3511 32.6981 -0.0195949
rclavicle 9.93923e-015 -9.14409e-015 0
rhumerus -40.5997 -1.03672 -74.1715
rradius 52.6678 -0 0
rwrist 0.0520514 0 0
rhand -11.2836 -13.9503 -0.269718
rfingers 7.12502 -0 0
rthumb 14.7582 -43.3907 -0.288078
103
root 7.23784 16.7056 -26.8391 2.81994 8.17304 -4.87266
lfemur -26.0199 -3.96816 -8.6188
ltibia 38.5532 -0 0
lfoot -16.9758 -0.40102 -0.213632
ltoes 13.7821 -0 0
rfemur -27.7453 -15.0825 18.1476
rtibia 40.6403 -0 0
rfoot -18.1612 1.28994 0.993647
rtoes -21.6291 0 0
lowerback 2.28285 2.14405 1.6197
upperback -0.419309 2.98162 1.80701
thorax -1.5666 1.46533 1.1029
lowerneck -10.4069 -4.13036 2.59295
upperneck -1.91597 -5.77458 0.877375
head 1.0928 -2.87207 -0.359525
lclavicle 9.93923e-015 -9.14409e-015 0
lhumerus -44.8763 -6.94845 91.4515
lradius 47.379 -0 0
lwrist 12.9397 0 0
lhand 1.95673 4.53274 -0.112903
lfingers 7.12502 -0 0
lthumb 27.4816 32.7324 -0.0239919
rclavicle 9.93923e-015 -9.14409e-015 0
rhumerus -40.5081 -1.14372 -73.1377
rradius 53.0398 -0 0
rwrist -0.00214611 0 0
rhand -10.6114 -14.0928 -0.307326
rfingers 7.12502 -0 0
rthumb 15.4092 -43.4973 -0.335131
104
root 7.27282 16.7167 -26.8232 2.1331 8.12432 -4.6168
lfemur -24.8478 -3.67827 -9.14884
ltibia 37.9736 -0 0
lfoot -16.8173 -1.05098 -0.233589
ltoes 14.5777 -0 0
rfemur -29.7589 -15.1464 18.0182
rtibia 40.5866 -0 0
rfoot -17.1127 2.09226 1.09052
rtoes -21.7906 0 0
lowerback 2.95346 1.96614 1.41579
upperback -0.139116 2.75328 1.81294
thorax -1.64627 1.35122 1.23662
lowerneck -10.495 -4.01869 2.54076
upperneck -1.76796 -5.62551 0.854283
head 1.15811 -2.79608 -0.355128
lclavicle 9.93923e-015 -9.14409e-015 0
lhumerus -44.6886 -7.13903 91.4164
lradius 47.4796 -0 0
lwrist 12.9261 0 0
lhand 2.0825 4.55826 -0.132121
lfingers 7.12502 -0 0
lthumb 27.6048 32.7675 -0.028467
rclavicle 9.93923e-015 -9.14409e-015 0
rhumerus -40.4143 -1.25634 -72.0811
rradius 53.4179 -0 0
rwrist -0.0509528 0 0
rhand -9.92406 -14.2506 -0.342972
rfingers 7.12502 -0 0
rthumb 16.0751 -43.618 -0.380806
105
root 7.3078 16.7277 -26.8074 1.43029 8.07384 -4.3489
lfemur -23.6429 -3.34405 -9.70062
ltibia 37.3856 -0 0
lfoot -16.658 -1.73405 -0.251351
ltoes 15.4252 -0 0
rfemur -31.8355 -15.2022 17.8871
rtibia 40.5285 -0 0
rfoot -16.0312 2.90457 1.17608
rtoes -21.94 0 0
lowerback 3.64202 1.78341 1.20352
upperback 0.149927 2.51536 1.81546
thorax -1.72638 1.23247 1.37219
lowerneck -10.5857 -3.90134 2.48552
upperneck -1.61797 -5.46855 0.832707
head 1.22473 -2.71614 -0.349628
lclavicle 9.93923e-015 -9.14409e-015 0
lhumerus -44.4887 -7.34643 91.3843
lradius 47.5802 -0 0
lwrist 12.9065 0 0
lhand 2.20308 4.58443 -0.151196
lfingers 7.12502 -0 0
lthumb 27.723 32.8037 -0.0329211
rclavicle 9.93923e-015 -9.14409e-015 0
rhumerus -40.3202 -1.37509 -71.0076
rradius 53.8033 -0 0
rwrist -0.0954439 0 0
rhand -9.22229 -14.4213 -0.375938
rfingers 7.12502 -0 0
rthumb 16.7547 -43.7493 -0.424111
106
root 7.34278 16.7388 -26.7915 0.715515 8.02406 -4.07081
lfemur -22.4138 -2.96656 -10.2682
ltibia 36.7918 -0 0
lfoot -16.4979 -2.44318 -0.266635
ltoes 16.3182 -0 0
rfemur -33.9626 -15.2519 17.7543
rtibia 40.4715 -0 0
rfoot -14.921 3.72266 1.24865
rtoes -22.0761 0 0
lowerback 4.34449 1.59678 0.983799
upperback 0.445953 2.26878 1.81451
thorax -1.80663 1.10954 1.50905
lowerneck -10.6784 -3.77936 2.4274
upperneck -1.46651 -5.30509 0.812959
head 1.29239 -2.63292 -0.342995
lclavicle 9.93923e-015 -9.14409e-015 0
lhumerus -44.2781 -7.57053 91.3557
lradius 47.6807 -0 0
lwrist 12.8813 0 0
lhand 2.32079 4.61222 -0.169749
lfingers 7.12502 -0 0
lthumb 27.8384 32.8409 -0.0372581
rclavicle 9.93923e-015 -9.14409e-015 0
rhumerus -40.2279 -1.50042 -69.9234
rradius 54.1969 -0 0
rwrist -0.136695 0 0
rhand -8.50705 -14.6021 -0.405565
rfingers 7.12502 -0 0
rthumb 17.4471 -43.8883 -0.464124
107
root 7.37776 16.7498 -26.7757 -0.00719486 7.97735 -3.78444
lfemur -21.1688 -2.5472 -10.8459
ltibia 36.1953 -0 0
lfoot -16.3368 -3.17136 -0.279194
ltoes 17.25 -0 0
rfemur -36.1281 -15.2973 17.6196
rtibia 40.421 -0 0
rfoot -13.7866 4.54225 1.30683
rtoes -22.1978 0 0
lowerback 5.05683 1.40714 0.757536
upperback 0.747102 2.01447 1.81011
thorax -1.8867 0.982899 1.64665
lowerneck -10.7727 -3.65378 2.36658
upperneck -1.3141 -5.1365 0.795344
head 1.36083 -2.54712 -0.3352
lclavicle 9.93923e-015 -9.14409e-015 0
lhumerus -44.0583 -7.81123 91.3312
lradius 47.7808 -0 0
lwrist 12.8513 0 0
lhand 2.43798 4.64262 -0.187406
lfingers 7.12502 -0 0
lthumb 27.9532 32.8793 -0.0413849
rclavicle 9.93923e-015 -9.14409e-015 0
rhumerus -40.1392 -1.63267 -68.8344
rradius 54.6 -0 0
rwrist -0.175781 0 0
rhand -7.77924 -14.7904 -0.431258
rfingers 7.12502 -0 0
rthumb 18.1514 -44.0316 -0.499998
108
root 7.41274 16.7609 -26.7598 -0.7338 7.936 -3.49176
lfemur -19.916 -2.08775 -11.428
ltibia 35.5989 -0 0
lfoot -16.1749 -3.91155 -0.288821
ltoes 18.2144 -0 0
rfemur -38.3195 -15.3402 17.4829
rtibia 40.3826 -0 0
rfoot -12.6326 5.359 1.34948
rtoes -22.3041 0 0
lowerback 5.775 1.21531 0.525707
upperback 1.05151 1.75338 1.80225
thorax -1.96626 0.853006 1.78441
lowerneck -10.8679 -3.52565 2.30323
upperneck -1.16123 -4.96415 0.780154
head 1.42977 -2.45942 -0.326219
lclavicle 9.93923e-015 -9.14409e-015 0
lhumerus -43.8306 -8.06844 91.3114
lradius 47.8802 -0 0
lwrist 12.8169 0 0
lhand 2.55698 4.67661 -0.203799
lfingers 7.12502 -0 0
lthumb 28.0695 32.919 -0.0452117
rclavicle 9.93923e-015 -9.14409e-015 0
rhumerus -40.0561 -1.77212 -67.7469
rradius 55.0137 -0 0
rwrist -0.213778 0 0
rhand -7.03977 -14.9833 -0.452492
rfingers 7.12502 -0 0
rthumb 18.8666 -44.1761 -0.530968
109
root 7.44772 16.7719 -26.744 -1.46024 7.90223 -3.19481
lfemur -18.6636 -1.59035 -12.0093
ltibia 35.0054 -0 0
lfoot -16.0121 -4.65672 -0.295348
ltoes 19.2047 -0 0
rfemur -40.5246 -15.3825 17.3444
rtibia 40.3617 -0 0
rfoot -11.4634 6.16848 1.37579
rtoes -22.3936 0 0
lowerback 6.49493 1.02206 0.289327
upperback 1.35733 1.48641 1.79098
thorax -2.045 0.720316 1.92176
lowerneck -10.9635 -3.396 2.23755
upperneck -1.00842 -4.78941 0.767672
head 1.49896 -2.37051 -0.316029
lclavicle 9.93923e-015 -9.14409e-015 0
lhumerus -43.5967 -8.34206 91.2969
lradius 47.9788 -0 0
lwrist 12.7789 0 0
lhand 2.68011 4.71516 -0.218569
lfingers 7.12502 -0 0
lthumb 28.1895 32.96 -0.0486521
rclavicle 9.93923e-015 -9.14409e-015 0
rhumerus -39.9805 -1.91892 -66.6667
rradius 55.4389 -0 0
rwrist -0.251761 0 0
rhand -6.28956 -15.1784 -0.468812
rfingers 7.12502 -0 0
rthumb 19.5916 -44.3184 -0.556352
110
root 7.4827 16.783 -26.7281 -2.18244 7.87814 -2.89566
lfemur -17.4194 -1.05752 -12.5845
ltibia 34.4177 -0 0
lfoot -15.8486 -5.39982 -0.298645
ltoes 20.2144 -0 0
rfemur -42.7312 -15.4257 17.2042
rtibia 40.3637 -0 0
rfoot -10.2836 6.96626 1.38523
rtoes -22.4654 0 0
lowerback 7.21257 0.828108 0.0494566
upperback 1.6627 1.2145 1.77636
thorax -2.12257 0.585283 2.05814
lowerneck -11.059 -3.26587 2.16973
upperneck -0.856149 -4.61368 0.758169
head 1.56813 -2.28109 -0.30461
lclavicle 9.93923e-015 -9.14409e-015 0
lhumerus -43.3579 -8.63201 91.2881
lradius 48.0763 -0 0
lwrist 12.7377 0 0
lhand 2.80973 4.75926 -0.231364
lfingers 7.12502 -0 0
lthumb 28.3153 33.0026 -0.0516234
rclavicle 9.93923e-015 -9.14409e-015 0
rhumerus -39.9143 -2.07317 -65.6
rradius 55.8769 -0 0
rwrist -0.290804 0 0
rhand -5.52954 -15.3727 -0.479839
rfingers 7.12502 -0 0
rthumb 20.3256 -44.4553 -0.575556
111
root 7.51768 16.794 -26.7123 -2.89629 7.86576 -2.59646
lfemur -16.1912 -0.492118 -13.1489
ltibia 33.8387 -0 0
lfoot -15.6842 -6.13383 -0.298624
ltoes 21.2371 -0 0
rfemur -44.9269 -15.4715 17.0627
rtibia 40.3942 -0 0
rfoot -9.09783 7.74785 1.37759
rtoes -22.5182 0 0
lowerback 7.92384 0.634098 -0.192801
upperback 1.96575 0.938587 1.75848
thorax -2.19865 0.448358 2.19296
lowerneck -11.1537 -3.13629 2.09997
upperneck -0.704919 -4.43833 0.751908
head 1.637 -2.19182 -0.291944
lclavicle 9.93923e-015 -9.14409e-015 0
lhumerus -43.1158 -8.93823 91.2859
lradius 48.1724 -0 0
lwrist 12.694 0 0
lhand 2.94815 4.80988 -0.24184
lfingers 7.12502 -0 0
lthumb 28.4493 33.0467 -0.0540473
rclavicle 9.93923e-015 -9.14409e-015 0
rhumerus -39.8594 -2.23488 -64.5527
rradius 56.3287 -0 0
rwrist -0.331985 0 0
rhand -4.76062 -15.5635 -0.48527
rfingers 7.12502 -0 0
rthumb 21.0673 -44.5835 -0.588075
112
root 7.55266 16.8051 -26.6964 -3.59769 7.86701 -2.29939
lfemur -14.9866 0.102642 -13.6978
ltibia 33.2711 -0 0
lfoot -15.5191 -6.85171 -0.295238
ltoes 22.2662 -0 0
rfemur -47.0997 -15.5214 16.9203
rtibia 40.4586 -0 0
rfoot -7.91054 8.50876 1.35296
rtoes -22.551 0 0
lowerback 8.62463 0.440619 -0.436299
upperback 2.26465 0.659581 1.73745
thorax -2.2729 0.309986 2.32567
lowerneck -11.2471 -3.00829 2.02848
upperneck -0.555222 -4.26474 0.749137
head 1.70531 -2.10342 -0.278014
lclavicle 9.93923e-015 -9.14409e-015 0
lhumerus -42.8719 -9.26064 91.2906
lradius 48.267 -0 0
lwrist 12.6484 0 0
lhand 3.09773 4.86802 -0.249668
lfingers 7.12502 -0 0
lthumb 28.5935 33.0925 -0.0558495
rclavicle 9.93923e-015 -9.14409e-015 0
rhumerus -39.8175 -2.404 -63.5308
rradius 56.7954 -0 0
rwrist -0.376377 0 0
rhand -3.98375 -15.7482 -0.484883
rfingers 7.12502 -0 0
rthumb 21.816 -44.6997 -0.593497
113
root 7.58764 16.8161 -26.6806 -4.28252 7.88373 -2.00668
lfemur -13.8129 0.723249 -14.227
ltibia 32.7179 -0 0
lfoot -15.3532 -7.54641 -0.288479
ltoes 23.2953 -0 0
rfemur -49.2373 -15.5769 16.7774
rtibia 40.5622 -0 0
rfoot -6.72632 9.24452 1.31172
rtoes -22.5624 0 0
lowerback 9.31085 0.248195 -0.679848
upperback 2.55753 0.378407 1.71343
thorax -2.34496 0.170614 2.45566
lowerneck -11.3387 -2.88291 1.95546
upperneck -0.407546 -4.0943 0.750099
head 1.77279 -2.01655 -0.262809
lclavicle 9.93923e-015 -9.14409e-015 0
lhumerus -42.6277 -9.59919 91.3031
lradius 48.3597 -0 0
lwrist 12.6015 0 0
lhand 3.26079 4.93464 -0.254528
lfingers 7.12502 -0 0
lthumb 28.7502 33.1401 -0.0569607
rclavicle 9.93923e-015 -9.14409e-015 0
rhumerus -39.7905 -2.58041 -62.5404
rradius 57.2781 -0 0
rwrist -0.425057 0 0
rhand -3.19985 -15.9239 -0.478539
rfingers 7.12502 -0 0
rthumb 22.5705 -44.8005 -0.591504
